<svg width="24" height="24" viewBox="0 0 24 24" fill="none" xmlns="http://www.w3.org/2000/svg">
<path d="M15.673 3.91295C16.2583 3.32762 17.0522 2.99878 17.88 2.99878C18.2899 2.99878 18.6957 3.07951 19.0744 3.23636C19.4531 3.39322 19.7972 3.62312 20.087 3.91295C20.3768 4.20278 20.6067 4.54685 20.7636 4.92553C20.9204 5.30421 21.0012 5.71007 21.0012 6.11995C21.0012 6.52983 20.9204 6.93569 20.7636 7.31437C20.6067 7.69305 20.3768 8.03712 20.087 8.32695L14.15 14.2639C13.3852 15.0291 12.3929 15.5256 11.322 15.6789L9.142 15.9889C8.9884 16.011 8.83178 15.9969 8.68454 15.948C8.5373 15.899 8.40347 15.8164 8.29365 15.7068C8.18383 15.5972 8.10103 15.4635 8.0518 15.3163C8.00257 15.1692 7.98826 15.0126 8.01 14.8589L8.321 12.6789C8.47409 11.6077 8.97062 10.615 9.736 9.84995L15.673 3.91295ZM18.673 5.32695C18.569 5.22264 18.4454 5.13987 18.3093 5.0834C18.1732 5.02693 18.0273 4.99787 17.88 4.99787C17.7327 4.99787 17.5868 5.02693 17.4507 5.0834C17.3146 5.13987 17.191 5.22264 17.087 5.32695L11.15 11.2639C10.6908 11.7229 10.3929 12.3183 10.301 12.9609L10.178 13.8209L11.038 13.6989C11.681 13.6072 12.2768 13.3093 12.736 12.8499L18.673 6.91295C18.7773 6.80891 18.8601 6.68531 18.9165 6.54923C18.973 6.41316 19.0021 6.26728 19.0021 6.11995C19.0021 5.97262 18.973 5.82674 18.9165 5.69066C18.8601 5.55459 18.7773 5.43099 18.673 5.32695ZM11 3.99995C11 4.26517 10.8946 4.51952 10.7071 4.70706C10.5196 4.89459 10.2652 4.99995 10 4.99995C9.002 4.99995 8.298 5.00795 7.747 5.05995C7.207 5.11195 6.885 5.20095 6.638 5.32695C6.07354 5.61456 5.61462 6.07349 5.327 6.63795C5.193 6.90095 5.101 7.24895 5.051 7.85395C5.001 8.47095 5 9.26395 5 10.3999V13.5999C5 14.7369 5 15.5289 5.051 16.1459C5.101 16.7509 5.193 17.0989 5.327 17.3619C5.61462 17.9264 6.07354 18.3853 6.638 18.6729C6.901 18.8069 7.249 18.8989 7.854 18.9489C8.471 18.9989 9.264 18.9999 10.4 18.9999H13.6C14.737 18.9999 15.529 18.9999 16.146 18.9489C16.751 18.8989 17.099 18.8069 17.362 18.6729C17.9265 18.3853 18.3854 17.9264 18.673 17.3619C18.799 17.1149 18.888 16.7929 18.939 16.2539C18.992 15.7019 18.999 14.9979 18.999 13.9989C18.9991 13.8676 19.0251 13.7376 19.0755 13.6163C19.1259 13.4951 19.1996 13.3849 19.2926 13.2921C19.3856 13.1994 19.4959 13.1258 19.6172 13.0757C19.7386 13.0256 19.8687 12.9998 20 12.9999C20.1313 13.0001 20.2613 13.0261 20.3826 13.0765C20.5039 13.1268 20.614 13.2006 20.7068 13.2935C20.7996 13.3865 20.8731 13.4968 20.9233 13.6182C20.9734 13.7396 20.9991 13.8696 20.999 14.0009C20.999 14.9789 20.993 15.7809 20.93 16.4429C20.866 17.1159 20.738 17.7129 20.455 18.2699C19.9756 19.2107 19.2108 19.9756 18.27 20.4549C17.678 20.7569 17.038 20.8829 16.309 20.9419C15.6 20.9999 14.727 20.9999 13.643 20.9999H10.357C9.273 20.9999 8.399 20.9999 7.691 20.9419C6.963 20.8819 6.322 20.7569 5.731 20.4549C4.78986 19.9758 4.02462 19.2109 3.545 18.2699C3.243 17.6779 3.117 17.0369 3.058 16.3089C3 15.5999 3 14.7269 3 13.6429V10.3569C3 9.27295 3 8.39895 3.058 7.69095C3.118 6.96195 3.243 6.32195 3.545 5.72995C4.02436 4.78918 4.78923 4.02431 5.73 3.54495C6.286 3.26095 6.884 3.13395 7.557 3.06995C8.22 3.00695 9.021 2.99995 10 2.99995C10.2652 2.99995 10.5196 3.10531 10.7071 3.29284C10.8946 3.48038 11 3.73473 11 3.99995Z" fill="#2964AA"/>
</svg>
